HIERARCHY
ROOT Hips
{
	OFFSET	0.00	0.00	0.00
	CHANNELS 6 Xposition Yposition Zposition Zrotation Xrotation Yrotation
	JOINT LeftUpLeg
	{
		OFFSET	 0.126116	-0.014019	-0.065224
		CHANNELS 3 Zrotation Xrotation Yrotation
		JOINT LeftLeg
		{
			OFFSET	 0.000000	 0.000000	 0.569914
			CHANNELS 3 Zrotation Xrotation Yrotation
			JOINT LeftFoot
			{
				OFFSET	 0.000000	 0.000000	 0.544423
				CHANNELS 3 Zrotation Xrotation Yrotation
				JOINT LeftToeBase
				{
					OFFSET	 0.000000	 0.000000	 0.207117
					CHANNELS 3 Zrotation Xrotation Yrotation
					End Site
					{
						OFFSET	 0.000000	 0.000000	 0.207117
					}
				}
			}
		}
	}
	JOINT RightUpLeg
	{
		OFFSET	-0.124023	-0.008373	-0.065224
		CHANNELS 3 Zrotation Xrotation Yrotation
		JOINT RightLeg
		{
			OFFSET	 0.000000	 0.000000	 0.570047
			CHANNELS 3 Zrotation Xrotation Yrotation
			JOINT RightFoot
			{
				OFFSET	 0.000000	 0.000000	 0.544354
				CHANNELS 3 Zrotation Xrotation Yrotation
				JOINT RightToeBase
				{
					OFFSET	 0.000000	 0.000000	 0.207540
					CHANNELS 3 Zrotation Xrotation Yrotation
					End Site
					{
						OFFSET	 0.000000	 0.000000	 0.207540
					}
				}
			}
		}
	}
	JOINT Spine
	{
		OFFSET	 0.000184	-0.007763	 0.117403
		CHANNELS 3 Zrotation Xrotation Yrotation
		JOINT Spine1
		{
			OFFSET	 0.000000	 0.000000	 0.137269
			CHANNELS 3 Zrotation Xrotation Yrotation
			JOINT Spine2
			{
				OFFSET	 0.000000	 0.000000	 0.156879
				CHANNELS 3 Zrotation Xrotation Yrotation
				JOINT LeftShoulder
				{
					OFFSET	 0.080501	-0.002496	 0.160144
					CHANNELS 3 Zrotation Xrotation Yrotation
					JOINT LeftArm
					{
						OFFSET	 0.000000	 0.000000	 0.164363
						CHANNELS 3 Zrotation Xrotation Yrotation
						JOINT LeftForeArm
						{
							OFFSET	 0.000000	 0.000000	 0.364576
							CHANNELS 3 Zrotation Xrotation Yrotation
							JOINT LeftHand
							{
								OFFSET	 0.000000	 0.000000	 0.360812
								CHANNELS 3 Zrotation Xrotation Yrotation
								JOINT LeftHandIndex1
								{
									OFFSET	 0.000000	 0.000000	 0.086006
									CHANNELS 3 Zrotation Xrotation Yrotation
									JOINT LeftHandIndex2
									{
										OFFSET	 0.000000	 0.000000	 0.047236
										CHANNELS 3 Zrotation Xrotation Yrotation
										JOINT LeftHandIndex3
										{
											OFFSET	-0.004284	-0.000551	 0.038166
											CHANNELS 3 Zrotation Xrotation Yrotation
											End Site
											{
												OFFSET	-0.004284	-0.000551	 0.038166
											}
										}
									}
								}
							}
						}
					}
				}
				JOINT Neck
				{
					OFFSET	 0.000000	 0.000000	 0.176489
					CHANNELS 3 Zrotation Xrotation Yrotation
					JOINT Head
					{
						OFFSET	 0.000000	-0.001747	 0.077940
						CHANNELS 3 Zrotation Xrotation Yrotation
						End Site
						{
							OFFSET	 0.000000	-0.001747	 0.077940
						}
					}
				}
				JOINT RightShoulder
				{
					OFFSET	-0.080363	 0.000306	 0.159706
					CHANNELS 3 Zrotation Xrotation Yrotation
					JOINT RightArm
					{
						OFFSET	 0.000000	 0.000000	 0.164196
						CHANNELS 3 Zrotation Xrotation Yrotation
						JOINT RightForeArm
						{
							OFFSET	 0.000000	 0.000000	 0.365611
							CHANNELS 3 Zrotation Xrotation Yrotation
							JOINT RightHand
							{
								OFFSET	 0.000000	 0.000000	 0.360648
								CHANNELS 3 Zrotation Xrotation Yrotation
								JOINT RightHandIndex1
								{
									OFFSET	 0.000000	 0.000000	 0.069977
									CHANNELS 3 Zrotation Xrotation Yrotation
									JOINT RightHandIndex2
									{
										OFFSET	 0.000000	 0.000000	 0.052305
										CHANNELS 3 Zrotation Xrotation Yrotation
										JOINT RightHandIndex3
										{
											OFFSET	 0.009002	-0.000782	 0.042196
											CHANNELS 3 Zrotation Xrotation Yrotation
											End Site
											{
												OFFSET	 0.009002	-0.000782	 0.042196
											}
										}
									}
								}
							}
						}
					}
				}
			}
		}
	}
}
MOTION
Frames:    12
Frame Time: 0.03333334
-0.001123	-1.725656	 1.156004	-3.567225	 8.486740	 1.750556	 4.558247	-21.978230	 173.740000	-1.632808	-41.711590	-0.248287	 0.059535	 85.451840	-0.566879	-2.385855	 28.446020	 0.000147	-2.523496	-22.817210	-178.745500	-0.117338	-42.706850	 0.029456	-0.297854	 86.446700	 0.570744	 2.407689	 17.330420	-0.225614	-8.175821	 9.107618	 0.190832	-12.965710	 7.096875	-2.008468	-15.210690	 4.100600	-0.465092	-124.979500	 89.567050	-144.354600	 65.031150	 61.625880	-87.639120	-5.355513	-4.643608	-21.983930	 6.778108	-2.201247	-5.334718	-3.812334	 37.924440	-2.927599	-2.450526	 36.184240	 0.754587	-1.378229	 35.397820	-2.634230	 0.465489	 3.115870	-0.653038	-3.303986	 7.063146	 0.619445	 94.390750	 86.819000	 172.011800	-64.769710	 73.594060	 81.082130	-3.341071	-15.090370	 26.918530	-27.005540	-3.187130	 9.583698	 6.437017	 35.671460	-0.771858	 2.830251	 35.756010	-7.813440	-2.350882	 35.473990	 5.254307
-0.000243	-1.720563	 1.158977	-3.597422	 8.041423	 1.723990	 4.533000	-22.112030	 174.173000	-1.674494	-40.140320	-0.211367	 0.117815	 84.674940	-0.605365	-2.385766	 28.467380	-0.000317	-2.469527	-22.997870	-178.758600	-0.122076	-41.001880	 0.007919	-0.263435	 85.593000	 0.517044	 2.407694	 17.413270	-0.223998	-8.193734	 8.871965	 0.127943	-12.972470	 6.697940	-1.949933	-15.197300	 3.894301	-0.492239	-115.673800	 89.397040	-153.549600	 56.054640	 59.848000	-78.162150	-3.646497	-4.374827	-20.875280	 6.527200	-2.197254	-5.336861	-3.812334	 37.924440	-2.927599	-2.450526	 36.184240	 0.754587	-1.378229	 35.397820	-2.634230	 0.456724	 2.632227	-0.631785	-3.341653	 6.655986	 0.595854	 94.719650	 86.906170	 171.577300	-53.480900	 70.187480	 71.746770	-3.210059	-12.984760	 25.856450	-24.031610	-3.187005	 9.584194	 6.437017	 35.671460	-0.771858	 2.830251	 35.756010	-7.813440	-2.350882	 35.473990	 5.254307
 0.000118	-1.720091	 1.158378	-3.613535	 8.051270	 1.777719	 4.513196	-22.279750	 174.131200	-1.724150	-40.464410	-0.263808	 0.026676	 84.781730	-0.566805	-2.385680	 28.487130	-0.000743	-2.457916	-23.162980	-178.766000	-0.094209	-41.250890	 0.039048	-0.389925	 85.683850	 0.680267	 2.407682	 17.640980	-0.219552	-8.220572	 9.021091	 0.096270	-12.966240	 6.812811	-1.958286	-15.198230	 4.018301	-0.475706	-115.634800	 89.394130	-153.574000	 55.902610	 59.438470	-77.997570	-3.647880	-4.264598	-21.145760	 6.118467	-2.195660	-5.339436	-3.812334	 37.924440	-2.927599	-2.450526	 36.184240	 0.754587	-1.378229	 35.397820	-2.634230	 0.449781	 2.564223	-0.603597	-3.340885	 6.681671	 0.554389	 94.719020	 86.897010	 171.564300	-53.397300	 69.894290	 71.820470	-3.215086	-12.961840	 26.037140	-23.842350	-3.186746	 9.584867	 6.437017	 35.671460	-0.771858	 2.830251	 35.756010	-7.813440	-2.350882	 35.473990	 5.254307
 0.000495	-1.719377	 1.157346	-3.630764	 8.040565	 1.814982	 4.500908	-22.528210	 174.091600	-1.750167	-40.851040	-0.296819	 0.095722	 84.902690	-0.667005	-2.385404	 28.550250	-0.002102	-2.438600	-23.361180	-178.768400	-0.077641	-41.565040	 0.069500	-0.534131	 85.785640	 0.858494	 2.407668	 17.815020	-0.216146	-8.251287	 9.197680	 0.079360	-12.948340	 6.938663	-1.963377	-15.189290	 4.152940	-0.457437	-115.422400	 89.383880	-153.764600	 55.681950	 58.949830	-77.789900	-3.665519	-4.129027	-21.475510	 5.629435	-2.191456	-5.342929	-3.812334	 37.924440	-2.927599	-2.450526	 36.184240	 0.754587	-1.378229	 35.397820	-2.634230	 0.439838	 2.462582	-0.583117	-3.339468	 6.727952	 0.500714	 94.725510	 86.889700	 171.542100	-53.249160	 69.529460	 71.867000	-3.239502	-12.967090	 26.304350	-23.640070	-3.185995	 9.586025	 6.437017	 35.671460	-0.771858	 2.830251	 35.756010	-7.813440	-2.350882	 35.473990	 5.254307
 0.001044	-1.718399	 1.156103	-3.662522	 8.033887	 1.829391	 4.515565	-22.868400	 174.064900	-1.785835	-41.285800	-0.319056	 0.206652	 85.033430	-0.795257	-2.385206	 28.593150	-0.003034	-2.425597	-23.600130	-178.740700	-0.062548	-41.935260	 0.098436	-0.689235	 85.894260	 1.043721	 2.407648	 17.973020	-0.213059	-8.280910	 9.388996	 0.080270	-12.915650	 7.057348	-1.963211	-15.170290	 4.279905	-0.439920	-115.088300	 89.368190	-154.067700	 55.395350	 58.453790	-77.580090	-3.651251	-4.018679	-21.852480	 5.203763	-2.184570	-5.346540	-3.812334	 37.924440	-2.927599	-2.450526	 36.184240	 0.754587	-1.378229	 35.397820	-2.634230	 0.428225	 2.336477	-0.571438	-3.341297	 6.783879	 0.468500	 94.737740	 86.883090	 171.511000	-53.019200	 69.127570	 71.851740	-3.271605	-13.000180	 26.642510	-23.438640	-3.184651	 9.587972	 6.437017	 35.671460	-0.771858	 2.830251	 35.756010	-7.813440	-2.350882	 35.473990	 5.254307
 0.001616	-1.717201	 1.154625	-3.709186	 8.051059	 1.838368	 4.548026	-23.227380	 174.041200	-1.825519	-41.792010	-0.335249	 0.331617	 85.181100	-0.928139	-2.385106	 28.615510	-0.003518	-2.414782	-23.903980	-178.705400	-0.053355	-42.383080	 0.124632	-0.861679	 86.015820	 1.240633	 2.407610	 18.140360	-0.209773	-8.315311	 9.603462	 0.092276	-12.871520	 7.167429	-1.958123	-15.141550	 4.398619	-0.423266	-114.680300	 89.348690	-154.431200	 55.012080	 57.992890	-77.356030	-3.502371	-4.000891	-22.294120	 5.009685	-2.175429	-5.349533	-3.812334	 37.924440	-2.927599	-2.450526	 36.184240	 0.754587	-1.378229	 35.397820	-2.634230	 0.413129	 2.186498	-0.564127	-3.347829	 6.842681	 0.464049	 94.755520	 86.875070	 171.468200	-52.703080	 68.682110	 71.792850	-3.300037	-13.060370	 27.060010	-23.232810	-3.189444	 9.582768	 6.437017	 35.671460	-0.771858	 2.830251	 35.756010	-7.813440	-2.350882	 35.473990	 5.254307
 0.002212	-1.715737	 1.152882	-3.762103	 8.079819	 1.848810	 4.598668	-23.612730	 174.021800	-1.873366	-42.369890	-0.347531	 0.465623	 85.346370	-1.063302	-2.384971	 28.644150	-0.004141	-2.403743	-24.285960	-178.667200	-0.056464	-42.910260	 0.144701	-1.050541	 86.150600	 1.444570	 2.407556	 18.334170	-0.205976	-8.358422	 9.843067	 0.106101	-12.816640	 7.266617	-1.956089	-15.098090	 4.506177	-0.407751	-114.191400	 89.324780	-154.872800	 54.532520	 57.598520	-77.130870	-3.247802	-4.084920	-22.809790	 5.057353	-2.164906	-5.351754	-3.812334	 37.924440	-2.927599	-2.450526	 36.184240	 0.754587	-1.378229	 35.397820	-2.634230	 0.396005	 2.020575	-0.552514	-3.349336	 6.895304	 0.475459	 94.777630	 86.863560	 171.412800	-52.325370	 68.203220	 71.741800	-3.310547	-13.144830	 27.546400	-23.027340	-3.194323	 9.577650	 6.437017	 35.671460	-0.771858	 2.830251	 35.756010	-7.813440	-2.350882	 35.473990	 5.254307
 0.002836	-1.714026	 1.150954	-3.819694	 8.120463	 1.856616	 4.664815	-24.033070	 174.009500	-1.932355	-42.993100	-0.358096	 0.599067	 85.522190	-1.194532	-2.384821	 28.678630	-0.004886	-2.390926	-24.738630	-178.626700	-0.075669	-43.492550	 0.155983	-1.250690	 86.293180	 1.648447	 2.407476	 18.562310	-0.201497	-8.409782	 10.095520	 0.119283	-12.754750	 7.347708	-1.954985	-15.037470	 4.596550	-0.394138	-113.684100	 89.300030	-155.333900	 54.019140	 57.221480	-76.954350	-3.055218	-4.178122	-23.397580	 5.103789	-2.154339	-5.353983	-3.812334	 37.924440	-2.927599	-2.450526	 36.184240	 0.754587	-1.378229	 35.397820	-2.634230	 0.383714	 1.853347	-0.544603	-3.342157	 6.930942	 0.508873	 94.801520	 86.847810	 171.347100	-51.919470	 67.722180	 71.733260	-3.291308	-13.245270	 28.067850	-22.832940	-3.191657	 9.581182	 6.437017	 35.671460	-0.771858	 2.830251	 35.756010	-7.813440	-2.350882	 35.473990	 5.254307
 0.003507	-1.711886	 1.148692	-3.885575	 8.180893	 1.854616	 4.729509	-24.544770	 173.996600	-1.994791	-43.709840	-0.372421	 0.748714	 85.722820	-1.343847	-2.384537	 28.740200	-0.006219	-2.373167	-25.307820	-178.579600	-0.102800	-44.174920	 0.166812	-1.478916	 86.455530	 1.877836	 2.407342	 18.859370	-0.195652	-8.473947	 10.373520	 0.144940	-12.678880	 7.413752	-1.951935	-14.952580	 4.673145	-0.381810	-113.177900	 89.271800	-155.787300	 53.440040	 56.835310	-76.803510	-3.063799	-4.217753	-24.120890	 4.978991	-2.143573	-5.356882	-3.812334	 37.924440	-2.927599	-2.450526	 36.184240	 0.754587	-1.378229	 35.397820	-2.634230	 0.377414	 1.660701	-0.548681	-3.324033	 6.952291	 0.567864	 94.827060	 86.824730	 171.266600	-51.468460	 67.210900	 71.798490	-3.229711	-13.365450	 28.653730	-22.636970	-3.189087	 9.584475	 6.437017	 35.671460	-0.771858	 2.830251	 35.756010	-7.813440	-2.350882	 35.473990	 5.254307
 0.004217	-1.709287	 1.146159	-3.960173	 8.274933	 1.824754	 4.750028	-25.161310	 173.999400	-2.062757	-44.510140	-0.417098	 0.832892	 85.946140	-1.455250	-2.384201	 28.816120	-0.007868	-2.339081	-25.988820	-178.528600	-0.124089	-44.948540	 0.193318	-1.643539	 86.635880	 2.055876	 2.407124	 19.236600	-0.188213	-8.546137	 10.678870	 0.195894	-12.587810	 7.461090	-1.943749	-14.841980	 4.730566	-0.371454	-112.732600	 89.242820	-156.169400	 52.805630	 56.459120	-76.654110	-3.215472	-4.223993	-24.974070	 4.747745	-2.132774	-5.359890	-3.812334	 37.924440	-2.927599	-2.450526	 36.184240	 0.754587	-1.378229	 35.397820	-2.634230	 0.378719	 1.428602	-0.552986	-3.291413	 6.962349	 0.625255	 94.852500	 86.792880	 171.172000	-50.981580	 66.691090	 71.949600	-3.111567	-13.498880	 29.285240	-22.442950	-3.186662	 9.587488	 6.437017	 35.671460	-0.771858	 2.830251	 35.756010	-7.813440	-2.350882	 35.473990	 5.254307
 0.004950	-1.706478	 1.143573	-4.039425	 8.398039	 1.772824	 4.755242	-25.830940	 174.030900	-2.173353	-45.336270	-0.500566	 0.785610	 86.176690	-1.469002	-2.383810	 28.898160	-0.009660	-2.271170	-26.695980	-178.484800	-0.137674	-45.756690	 0.246516	-1.662267	 86.822140	 2.109925	 2.406857	 19.613130	-0.180770	-8.616113	 10.997700	 0.260460	-12.486150	 7.484118	-1.929289	-14.714340	 4.760623	-0.364335	-112.403900	 89.213660	-156.425900	 52.168020	 56.118160	-76.513790	-3.413333	-4.227331	-25.879590	 4.511955	-2.122934	-5.362539	-3.812334	 37.924440	-2.927599	-2.450526	 36.184240	 0.754587	-1.378229	 35.397820	-2.634230	 0.388659	 1.179170	-0.567551	-3.249269	 6.954178	 0.704636	 94.874080	 86.753940	 171.071500	-50.451120	 66.222940	 72.088930	-2.937477	-13.630900	 29.910720	-22.260370	-3.184399	 9.590172	 6.437017	 35.671460	-0.771858	 2.830251	 35.756010	-7.813440	-2.350882	 35.473990	 5.254307
 0.005929	-1.702635	 1.140187	-4.151191	 8.573884	 1.706439	 4.796389	-26.746690	 174.088600	-2.319216	-46.430250	-0.590401	 1.035837	 86.481580	-1.781342	-2.383267	 29.016450	-0.012225	-2.232860	-27.634750	-178.457500	-0.149756	-46.837310	 0.288067	-2.055324	 87.068020	 2.525457	 2.406483	 20.048210	-0.172148	-8.697392	 11.437180	 0.343501	-12.337810	 7.483610	-1.910179	-14.532920	 4.761408	-0.359692	-112.147800	 89.177890	-156.575300	 51.353560	 55.724330	-76.342250	-3.654365	-4.252523	-27.062520	 4.273542	-2.111891	-5.365200	-3.812334	 37.924440	-2.927599	-2.450526	 36.184240	 0.754587	-1.378229	 35.397820	-2.634230	 0.413321	 0.842998	-0.598868	-3.190724	 6.912538	 0.840933	 94.894810	 86.693700	 170.936000	-49.726960	 65.660910	 72.230170	-2.683284	-13.793120	 30.697880	-22.037870	-3.197805	 9.576107	 6.437017	 35.671460	-0.771858	 2.830251	 35.756010	-7.813440	-2.350882	 35.473990	 5.254307
